<svg width="20" height="20" viewBox="0 0 20 20" fill="none" xmlns="http://www.w3.org/2000/svg">
<path opacity="0.5" fill-rule="evenodd" clip-rule="evenodd" d="M5.83334 3.125C5.55707 3.125 5.29212 3.23475 5.09677 3.4301C4.90142 3.62545 4.79167 3.8904 4.79167 4.16667V15.8333C4.79167 16.1096 4.90142 16.3746 5.09677 16.5699C5.29212 16.7653 5.55707 16.875 5.83334 16.875H14.1667C14.4429 16.875 14.7079 16.7653 14.9032 16.5699C15.0986 16.3746 15.2083 16.1096 15.2083 15.8333V4.16667C15.2083 3.8904 15.0986 3.62545 14.9032 3.4301C14.7079 3.23475 14.4429 3.125 14.1667 3.125H5.83334ZM4.21289 2.54621C4.64266 2.11644 5.22555 1.875 5.83334 1.875H14.1667C14.7745 1.875 15.3574 2.11644 15.7871 2.54621C16.2169 2.97598 16.4583 3.55888 16.4583 4.16667V15.8333C16.4583 16.4411 16.2169 17.024 15.7871 17.4538C15.3574 17.8836 14.7745 18.125 14.1667 18.125H5.83334C5.22555 18.125 4.64266 17.8836 4.21289 17.4538C3.78311 17.024 3.54167 16.4411 3.54167 15.8333V4.16667C3.54167 3.55888 3.78311 2.97598 4.21289 2.54621ZM6.87501 5.83333C6.87501 5.48816 7.15483 5.20833 7.50001 5.20833H12.5C12.8452 5.20833 13.125 5.48816 13.125 5.83333C13.125 6.17851 12.8452 6.45833 12.5 6.45833H7.50001C7.15483 6.45833 6.87501 6.17851 6.87501 5.83333ZM6.87501 9.16667C6.87501 8.82149 7.15483 8.54167 7.50001 8.54167H12.5C12.8452 8.54167 13.125 8.82149 13.125 9.16667C13.125 9.51184 12.8452 9.79167 12.5 9.79167H7.50001C7.15483 9.79167 6.87501 9.51184 6.87501 9.16667ZM6.87501 12.5C6.87501 12.1548 7.15483 11.875 7.50001 11.875H10.8333C11.1785 11.875 11.4583 12.1548 11.4583 12.5C11.4583 12.8452 11.1785 13.125 10.8333 13.125H7.50001C7.15483 13.125 6.87501 12.8452 6.87501 12.5Z" fill="white"/>
</svg>
