<svg width="20" height="20" viewBox="0 0 20 20" fill="none" xmlns="http://www.w3.org/2000/svg">
<path fill-rule="evenodd" clip-rule="evenodd" d="M4.21288 2.54621C4.64265 2.11644 5.22555 1.875 5.83333 1.875C6.44112 1.875 7.02401 2.11644 7.45379 2.54621C7.88356 2.97598 8.125 3.55888 8.125 4.16667C8.125 4.77445 7.88356 5.35735 7.45379 5.78712C7.02401 6.21689 6.44112 6.45833 5.83333 6.45833C5.22555 6.45833 4.64265 6.21689 4.21288 5.78712C3.78311 5.35735 3.54167 4.77445 3.54167 4.16667C3.54167 3.55888 3.78311 2.97598 4.21288 2.54621ZM5.83333 3.125C5.55707 3.125 5.29211 3.23475 5.09676 3.4301C4.90141 3.62545 4.79167 3.8904 4.79167 4.16667C4.79167 4.44293 4.90141 4.70789 5.09676 4.90324C5.29211 5.09859 5.55707 5.20833 5.83333 5.20833C6.1096 5.20833 6.37455 5.09859 6.5699 4.90324C6.76525 4.70789 6.875 4.44293 6.875 4.16667C6.875 3.8904 6.76525 3.62545 6.5699 3.4301C6.37455 3.23475 6.1096 3.125 5.83333 3.125ZM12.5462 2.54621C12.976 2.11644 13.5589 1.875 14.1667 1.875C14.7745 1.875 15.3573 2.11644 15.7871 2.54621C16.2169 2.97598 16.4583 3.55888 16.4583 4.16667C16.4583 4.77445 16.2169 5.35735 15.7871 5.78712C15.3573 6.21689 14.7745 6.45833 14.1667 6.45833C13.5589 6.45833 12.976 6.21689 12.5462 5.78712C12.1164 5.35735 11.875 4.77445 11.875 4.16667C11.875 3.55888 12.1164 2.97598 12.5462 2.54621ZM14.1667 3.125C13.8904 3.125 13.6254 3.23475 13.4301 3.4301C13.2347 3.62545 13.125 3.8904 13.125 4.16667C13.125 4.44293 13.2347 4.70789 13.4301 4.90324C13.6254 5.09859 13.8904 5.20833 14.1667 5.20833C14.4429 5.20833 14.7079 5.09859 14.9032 4.90324C15.0986 4.70789 15.2083 4.44293 15.2083 4.16667C15.2083 3.8904 15.0986 3.62545 14.9032 3.4301C14.7079 3.23475 14.4429 3.125 14.1667 3.125ZM4.16667 8.95833C3.8904 8.95833 3.62545 9.06808 3.4301 9.26343C3.23475 9.45878 3.125 9.72373 3.125 10V10.8333C3.125 11.1785 2.84518 11.4583 2.5 11.4583C2.15482 11.4583 1.875 11.1785 1.875 10.8333V10C1.875 9.39221 2.11644 8.80932 2.54621 8.37955C2.97598 7.94978 3.55888 7.70833 4.16667 7.70833H5.83333C6.17851 7.70833 6.45833 7.98816 6.45833 8.33333C6.45833 8.67851 6.17851 8.95833 5.83333 8.95833H4.16667ZM13.5417 8.33333C13.5417 7.98816 13.8215 7.70833 14.1667 7.70833H15.8333C16.4411 7.70833 17.024 7.94978 17.4538 8.37955C17.8836 8.80932 18.125 9.39221 18.125 10V10.8333C18.125 11.1785 17.8452 11.4583 17.5 11.4583C17.1548 11.4583 16.875 11.1785 16.875 10.8333V10C16.875 9.72373 16.7653 9.45878 16.5699 9.26343C16.3746 9.06808 16.1096 8.95833 15.8333 8.95833H14.1667C13.8215 8.95833 13.5417 8.67851 13.5417 8.33333ZM8.37955 9.21288C8.80932 8.78311 9.39221 8.54167 10 8.54167C10.6078 8.54167 11.1907 8.78311 11.6205 9.21288C12.0502 9.64265 12.2917 10.2255 12.2917 10.8333C12.2917 11.4411 12.0502 12.024 11.6205 12.4538C11.1907 12.8836 10.6078 13.125 10 13.125C9.39221 13.125 8.80932 12.8836 8.37955 12.4538C7.94978 12.024 7.70833 11.4411 7.70833 10.8333C7.70833 10.2255 7.94978 9.64265 8.37955 9.21288ZM10 9.79167C9.72373 9.79167 9.45878 9.90141 9.26343 10.0968C9.06808 10.2921 8.95833 10.5571 8.95833 10.8333C8.95833 11.1096 9.06808 11.3746 9.26343 11.5699C9.45878 11.7653 9.72373 11.875 10 11.875C10.2763 11.875 10.5412 11.7653 10.7366 11.5699C10.9319 11.3746 11.0417 11.1096 11.0417 10.8333C11.0417 10.5571 10.9319 10.2921 10.7366 10.0968C10.5412 9.90141 10.2763 9.79167 10 9.79167ZM8.33333 15.625C8.05707 15.625 7.79211 15.7347 7.59676 15.9301C7.40141 16.1254 7.29167 16.3904 7.29167 16.6667V17.5C7.29167 17.8452 7.01184 18.125 6.66667 18.125C6.32149 18.125 6.04167 17.8452 6.04167 17.5V16.6667C6.04167 16.0589 6.28311 15.476 6.71288 15.0462C7.14265 14.6164 7.72554 14.375 8.33333 14.375H11.6667C12.2745 14.375 12.8573 14.6164 13.2871 15.0462C13.7169 15.476 13.9583 16.0589 13.9583 16.6667V17.5C13.9583 17.8452 13.6785 18.125 13.3333 18.125C12.9882 18.125 12.7083 17.8452 12.7083 17.5V16.6667C12.7083 16.3904 12.5986 16.1254 12.4032 15.9301C12.2079 15.7347 11.9429 15.625 11.6667 15.625H8.33333Z" fill="white"/>
</svg>
