<svg width="20" height="20" viewBox="0 0 20 20" fill="none" xmlns="http://www.w3.org/2000/svg">
<path fill-rule="evenodd" clip-rule="evenodd" d="M5.72279 4.84323C5.96686 5.08731 5.96685 5.48304 5.72277 5.72711C5.16171 6.28813 4.71666 6.95418 4.41302 7.68721C4.10938 8.42023 3.95309 9.20589 3.95309 9.99932C3.95309 10.7928 4.10938 11.5784 4.41302 12.3114C4.71666 13.0445 5.16171 13.7105 5.72277 14.2715C5.96685 14.5156 5.96686 14.9113 5.72279 15.1554C5.47872 15.3995 5.08299 15.3995 4.83891 15.1554C4.16177 14.4783 3.62464 13.6745 3.25818 12.7898C2.89171 11.9051 2.70309 10.9569 2.70309 9.99932C2.70309 9.04174 2.89171 8.09353 3.25818 7.20884C3.62464 6.32415 4.16177 5.5203 4.83891 4.8432C5.08299 4.59913 5.47872 4.59914 5.72279 4.84323ZM14.2722 4.84323C14.5163 4.59914 14.912 4.59913 15.1561 4.8432C15.8332 5.5203 16.3704 6.32415 16.7368 7.20884C17.1033 8.09353 17.2919 9.04174 17.2919 9.99932C17.2919 10.9569 17.1033 11.9051 16.7368 12.7898C16.3704 13.6745 15.8332 14.4783 15.1561 15.1554C14.912 15.3995 14.5163 15.3995 14.2722 15.1554C14.0282 14.9113 14.0282 14.5156 14.2722 14.2715C14.8333 13.7105 15.2784 13.0445 15.582 12.3114C15.8856 11.5784 16.0419 10.7928 16.0419 9.99932C16.0419 9.20589 15.8856 8.42023 15.582 7.68721C15.2784 6.95418 14.8333 6.28813 14.2722 5.72711C14.0282 5.48304 14.0282 5.08731 14.2722 4.84323ZM8.08188 7.20073C8.32599 7.44477 8.32605 7.8405 8.08201 8.08462C7.57428 8.5925 7.28905 9.28125 7.28905 9.99941C7.28905 10.7176 7.57428 11.4063 8.08201 11.9142C8.32605 12.1583 8.32599 12.554 8.08188 12.7981C7.83776 13.0421 7.44203 13.0421 7.19799 12.7979C6.45592 12.0557 6.03905 11.049 6.03905 9.99941C6.03905 8.9498 6.45592 7.94316 7.19799 7.20087C7.44203 6.95675 7.83776 6.95669 8.08188 7.20073ZM11.9148 7.20073C12.1589 6.95669 12.5546 6.95675 12.7987 7.20087C13.5408 7.94316 13.9576 8.9498 13.9576 9.99941C13.9576 11.049 13.5408 12.0557 12.7987 12.7979C12.5546 13.0421 12.1589 13.0421 11.9148 12.7981C11.6707 12.554 11.6706 12.1583 11.9147 11.9142C12.4224 11.4063 12.7076 10.7176 12.7076 9.99941C12.7076 9.28125 12.4224 8.5925 11.9147 8.08462C11.6706 7.8405 11.6707 7.44477 11.9148 7.20073ZM10 9.37451C10.3452 9.37451 10.625 9.65433 10.625 9.99951V10.0078C10.625 10.353 10.3452 10.6328 10 10.6328C9.65482 10.6328 9.375 10.353 9.375 10.0078V9.99951C9.375 9.65433 9.65482 9.37451 10 9.37451Z" fill="white"/>
</svg>
