<svg width="16" height="16" viewBox="0 0 16 16" fill="none" xmlns="http://www.w3.org/2000/svg">
<path fill-rule="evenodd" clip-rule="evenodd" d="M6.6687 2.5C6.6245 2.5 6.58211 2.51756 6.55085 2.54882C6.51959 2.58007 6.50203 2.62246 6.50203 2.66667V4.16667H9.50203V2.66667C9.50203 2.62246 9.48448 2.58007 9.45322 2.54882C9.42196 2.51756 9.37957 2.5 9.33537 2.5H6.6687ZM10.502 4.16667V2.66667C10.502 2.35725 10.3791 2.0605 10.1603 1.84171C9.94153 1.62292 9.64479 1.5 9.33537 1.5H6.6687C6.35928 1.5 6.06254 1.62292 5.84374 1.84171C5.62495 2.0605 5.50203 2.35725 5.50203 2.66667V4.16667H3.34121C3.3377 4.16663 3.33417 4.16663 3.33064 4.16667H2.6687C2.39256 4.16667 2.1687 4.39052 2.1687 4.66667C2.1687 4.94281 2.39256 5.16667 2.6687 5.16667H2.8753L3.50217 12.6891C3.50802 13.1672 3.70048 13.6245 4.03901 13.963C4.38282 14.3068 4.84914 14.5 5.33537 14.5H10.6687C11.1549 14.5 11.6212 14.3068 11.9651 13.963C12.3036 13.6245 12.4961 13.1672 12.5019 12.6891L13.1288 5.16667H13.3354C13.6115 5.16667 13.8354 4.94281 13.8354 4.66667C13.8354 4.39052 13.6115 4.16667 13.3354 4.16667H12.6734C12.6699 4.16663 12.6664 4.16663 12.6629 4.16667H10.502ZM3.87877 5.16667L4.50031 12.6251C4.50146 12.639 4.50203 12.6528 4.50203 12.6667C4.50203 12.8877 4.58983 13.0996 4.74611 13.2559C4.90239 13.4122 5.11435 13.5 5.33537 13.5H10.6687C10.8897 13.5 11.1017 13.4122 11.258 13.2559C11.4142 13.0996 11.502 12.8877 11.502 12.6667C11.502 12.6528 11.5026 12.639 11.5038 12.6251L12.1253 5.16667H3.87877ZM6.6687 6.83333C6.94484 6.83333 7.1687 7.05719 7.1687 7.33333V11.3333C7.1687 11.6095 6.94484 11.8333 6.6687 11.8333C6.39256 11.8333 6.1687 11.6095 6.1687 11.3333V7.33333C6.1687 7.05719 6.39256 6.83333 6.6687 6.83333ZM9.33537 6.83333C9.61151 6.83333 9.83537 7.05719 9.83537 7.33333V11.3333C9.83537 11.6095 9.61151 11.8333 9.33537 11.8333C9.05923 11.8333 8.83537 11.6095 8.83537 11.3333V7.33333C8.83537 7.05719 9.05923 6.83333 9.33537 6.83333Z" fill="#D9D9D9"/>
</svg>
