<svg width="12" height="14" viewBox="0 0 12 14" fill="none" xmlns="http://www.w3.org/2000/svg">
<path fill-rule="evenodd" clip-rule="evenodd" d="M2.66663 1.5C2.44561 1.5 2.23365 1.5878 2.07737 1.74408C1.92109 1.90036 1.83329 2.11232 1.83329 2.33333V7C1.83329 7.27614 1.60944 7.5 1.33329 7.5C1.05715 7.5 0.833293 7.27614 0.833293 7V2.33333C0.833293 1.8471 1.02645 1.38079 1.37026 1.03697C1.71408 0.693154 2.1804 0.5 2.66663 0.5H7.33329C7.4659 0.5 7.59308 0.552678 7.68685 0.646447L11.0202 3.97978C11.1139 4.07355 11.1666 4.20073 11.1666 4.33333V7C11.1666 7.27614 10.9428 7.5 10.6666 7.5C10.3905 7.5 10.1666 7.27614 10.1666 7V4.83333H7.99996C7.69054 4.83333 7.39379 4.71042 7.175 4.49162C6.95621 4.27283 6.83329 3.97609 6.83329 3.66667V1.5H2.66663ZM7.83329 2.20711L9.45952 3.83333H7.99996C7.95576 3.83333 7.91336 3.81577 7.88211 3.78452C7.85085 3.75326 7.83329 3.71087 7.83329 3.66667V2.20711ZM8.50851 8.52566C8.77048 8.43833 9.05364 8.57992 9.14097 8.84189L9.99996 11.4189L10.859 8.84189C10.9463 8.57992 11.2294 8.43833 11.4914 8.52566C11.7534 8.61298 11.895 8.89614 11.8076 9.15811L10.4743 13.1581C10.4062 13.3623 10.2152 13.5 9.99996 13.5C9.78474 13.5 9.59368 13.3623 9.52562 13.1581L8.19228 9.15811C8.10496 8.89614 8.24654 8.61298 8.50851 8.52566ZM0.605966 8.93934C0.88727 8.65804 1.2688 8.5 1.66663 8.5C2.06445 8.5 2.44598 8.65804 2.72729 8.93934C3.00859 9.22064 3.16663 9.60218 3.16663 10C3.16663 10.2761 2.94277 10.5 2.66663 10.5C2.39048 10.5 2.16663 10.2761 2.16663 10C2.16663 9.86739 2.11395 9.74022 2.02018 9.64645C1.92641 9.55268 1.79923 9.5 1.66663 9.5C1.53402 9.5 1.40684 9.55268 1.31307 9.64645C1.2193 9.74022 1.16663 9.86739 1.16663 10V12C1.16663 12.1326 1.2193 12.2598 1.31307 12.3536C1.40684 12.4473 1.53402 12.5 1.66663 12.5C1.79923 12.5 1.92641 12.4473 2.02018 12.3536C2.11395 12.2598 2.16663 12.1326 2.16663 12C2.16663 11.7239 2.39048 11.5 2.66663 11.5C2.94277 11.5 3.16663 11.7239 3.16663 12C3.16663 12.3978 3.00859 12.7794 2.72729 13.0607C2.44598 13.342 2.06445 13.5 1.66663 13.5C1.2688 13.5 0.88727 13.342 0.605966 13.0607C0.324661 12.7794 0.166626 12.3978 0.166626 12V10C0.166626 9.60218 0.324661 9.22064 0.605966 8.93934ZM5.33329 9.5C5.28909 9.5 5.2467 9.51756 5.21544 9.54882C5.18419 9.58007 5.16663 9.62247 5.16663 9.66667V10.3333C5.16663 10.3775 5.18419 10.4199 5.21544 10.4512C5.2467 10.4824 5.28909 10.5 5.33329 10.5H5.99996C6.30938 10.5 6.60612 10.6229 6.82492 10.8417C7.04371 11.0605 7.16663 11.3572 7.16663 11.6667V12.3333C7.16663 12.6428 7.04371 12.9395 6.82492 13.1583C6.60612 13.3771 6.30938 13.5 5.99996 13.5H5.16663C4.61448 13.5 4.16663 13.0521 4.16663 12.5C4.16663 12.2239 4.39048 12 4.66663 12C4.94277 12 5.16663 12.2239 5.16663 12.5H5.99996C6.04416 12.5 6.08656 12.4824 6.11781 12.4512C6.14907 12.4199 6.16663 12.3775 6.16663 12.3333V11.6667C6.16663 11.6225 6.14907 11.5801 6.11781 11.5488C6.08656 11.5176 6.04416 11.5 5.99996 11.5H5.33329C5.02387 11.5 4.72713 11.3771 4.50834 11.1583C4.28954 10.9395 4.16663 10.6428 4.16663 10.3333V9.66667C4.16663 9.35725 4.28954 9.0605 4.50834 8.84171C4.72713 8.62292 5.02387 8.5 5.33329 8.5H6.16663C6.43184 8.5 6.6862 8.60536 6.87373 8.79289C7.06127 8.98043 7.16663 9.23478 7.16663 9.5C7.16663 9.77614 6.94277 10 6.66663 10C6.39048 10 6.16663 9.77614 6.16663 9.5H5.33329Z" fill="#D9D9D9"/>
</svg>
