<svg width="16" height="14" viewBox="0 0 16 14" fill="none" xmlns="http://www.w3.org/2000/svg">
<path fill-rule="evenodd" clip-rule="evenodd" d="M4.66671 1.5C4.44569 1.5 4.23373 1.5878 4.07745 1.74408C3.92117 1.90036 3.83337 2.11232 3.83337 2.33333V7C3.83337 7.27614 3.60952 7.5 3.33337 7.5C3.05723 7.5 2.83337 7.27614 2.83337 7V2.33333C2.83337 1.8471 3.02653 1.38079 3.37034 1.03697C3.71416 0.693154 4.18048 0.5 4.66671 0.5H9.33337C9.46598 0.5 9.59316 0.552678 9.68693 0.646447L13.0203 3.97978C13.114 4.07355 13.1667 4.20073 13.1667 4.33333V7C13.1667 7.27614 12.9428 7.5 12.6667 7.5C12.3906 7.5 12.1667 7.27614 12.1667 7V4.83333H10C9.69062 4.83333 9.39387 4.71042 9.17508 4.49162C8.95629 4.27283 8.83337 3.97609 8.83337 3.66667V1.5H4.66671ZM9.83337 2.20711L11.4596 3.83333H10C9.95584 3.83333 9.91345 3.81577 9.88219 3.78452C9.85093 3.75326 9.83337 3.71087 9.83337 3.66667V2.20711ZM8.52181 8.52145C8.73269 8.4576 8.96051 8.53932 9.08273 8.72265L10 10.0986L10.9173 8.72265C11.0396 8.53932 11.2674 8.4576 11.4783 8.52145C11.6891 8.5853 11.8334 8.77967 11.8334 9V13C11.8334 13.2761 11.6095 13.5 11.3334 13.5C11.0572 13.5 10.8334 13.2761 10.8334 13V10.6514L10.4161 11.2774C10.3233 11.4164 10.1672 11.5 10 11.5C9.83286 11.5 9.67675 11.4164 9.58401 11.2774L9.16671 10.6514V13C9.16671 13.2761 8.94285 13.5 8.66671 13.5C8.39056 13.5 8.16671 13.2761 8.16671 13V9C8.16671 8.77967 8.31094 8.5853 8.52181 8.52145ZM1.33337 8.5C1.60952 8.5 1.83337 8.72386 1.83337 9V10.5H2.83337V9C2.83337 8.72386 3.05723 8.5 3.33337 8.5C3.60952 8.5 3.83337 8.72386 3.83337 9V13C3.83337 13.2761 3.60952 13.5 3.33337 13.5C3.05723 13.5 2.83337 13.2761 2.83337 13V11.5H1.83337V13C1.83337 13.2761 1.60952 13.5 1.33337 13.5C1.05723 13.5 0.833374 13.2761 0.833374 13V9C0.833374 8.72386 1.05723 8.5 1.33337 8.5ZM4.50004 9C4.50004 8.72386 4.7239 8.5 5.00004 8.5H7.00004C7.27618 8.5 7.50004 8.72386 7.50004 9C7.50004 9.27614 7.27618 9.5 7.00004 9.5H6.50004V13C6.50004 13.2761 6.27618 13.5 6.00004 13.5C5.7239 13.5 5.50004 13.2761 5.50004 13V9.5H5.00004C4.7239 9.5 4.50004 9.27614 4.50004 9ZM13.3334 8.5C13.6095 8.5 13.8334 8.72386 13.8334 9V12.5H14.6667C14.9428 12.5 15.1667 12.7239 15.1667 13C15.1667 13.2761 14.9428 13.5 14.6667 13.5H13.3334C13.0572 13.5 12.8334 13.2761 12.8334 13V9C12.8334 8.72386 13.0572 8.5 13.3334 8.5Z" fill="#D9D9D9"/>
</svg>
