<svg width="16" height="16" viewBox="0 0 16 16" fill="none" xmlns="http://www.w3.org/2000/svg">
<path fill-rule="evenodd" clip-rule="evenodd" d="M10.0923 2.79585C10.3817 2.67596 10.6919 2.61426 11.0052 2.61426C11.3185 2.61426 11.6287 2.67596 11.9181 2.79585C12.2076 2.91574 12.4706 3.09146 12.6921 3.31299C12.9136 3.53451 13.0893 3.7975 13.2092 4.08694C13.3291 4.37638 13.3908 4.68659 13.3908 4.99988C13.3908 5.31316 13.3291 5.62337 13.2092 5.91281C13.0893 6.20225 12.9136 6.46524 12.6921 6.68676L5.6921 13.6868C5.59833 13.7805 5.47115 13.8332 5.33854 13.8332H2.67188C2.39573 13.8332 2.17188 13.6094 2.17188 13.3332V10.6665C2.17188 10.5339 2.22455 10.4068 2.31832 10.313L8.64793 3.98338C8.64917 3.98212 8.65041 3.98087 8.65166 3.97962C8.6529 3.97837 8.65416 3.97713 8.65542 3.9759L9.31832 3.31299C9.53985 3.09146 9.80284 2.91574 10.0923 2.79585ZM9.00523 5.0403L3.17188 10.8736V12.8332H5.13144L10.9648 6.99986L9.00523 5.0403ZM11.6719 6.29275L9.71233 4.33319L10.0254 4.0201C10.1541 3.89143 10.3068 3.78937 10.475 3.71973C10.6431 3.6501 10.8232 3.61426 11.0052 3.61426C11.1872 3.61426 11.3673 3.6501 11.5355 3.71973C11.7036 3.78937 11.8563 3.89143 11.985 4.0201C12.1137 4.14876 12.2157 4.30151 12.2854 4.46962C12.355 4.63773 12.3908 4.81791 12.3908 4.99988C12.3908 5.18184 12.355 5.36202 12.2854 5.53013C12.2157 5.69824 12.1137 5.85099 11.985 5.97966L11.6719 6.29275Z" fill="#D9D9D9"/>
</svg>
