<svg width="200" height="51" viewBox="0 0 200 51" fill="none" xmlns="http://www.w3.org/2000/svg">
<path d="M2.272 37V14.696H17.088V17.992H5.984V23.912H16.224V27.24H5.984V33.704H17.088V37H2.272ZM24.883 37L18.451 21.224H22.355L26.355 32.392L30.419 21.224H34.259L27.827 37H24.883ZM43.3358 37.288C42.0131 37.288 40.8611 37.0747 39.8798 36.648C38.9198 36.2213 38.1304 35.624 37.5118 34.856C36.8931 34.088 36.4344 33.224 36.1358 32.264C35.8371 31.2827 35.6878 30.2693 35.6878 29.224C35.6878 28.1787 35.8264 27.1653 36.1038 26.184C36.4024 25.1813 36.8504 24.2853 37.4478 23.496C38.0451 22.7067 38.8131 22.088 39.7518 21.64C40.6904 21.1707 41.7998 20.936 43.0798 20.936C44.2958 20.936 45.3518 21.1493 46.2478 21.576C47.1651 21.9813 47.9224 22.5573 48.5198 23.304C49.1171 24.0293 49.5544 24.8613 49.8318 25.8C50.1304 26.7387 50.2798 27.7413 50.2798 28.808C50.2798 28.9573 50.2691 29.1707 50.2478 29.448C50.2478 29.7253 50.2264 30.0027 50.1838 30.28H39.2398C39.3251 31.5387 39.7518 32.4987 40.5198 33.16C41.2878 33.8213 42.2691 34.152 43.4638 34.152C44.3384 34.152 45.1384 34.0133 45.8638 33.736C46.5891 33.4587 47.2504 33.0213 47.8478 32.424L49.7998 34.792C49.1384 35.3893 48.4771 35.8693 47.8158 36.232C47.1544 36.5947 46.4611 36.8613 45.7358 37.032C45.0318 37.2027 44.2318 37.288 43.3358 37.288ZM46.7918 28.488C46.8344 28.3173 46.8558 28.1467 46.8558 27.976C46.8771 27.8053 46.8878 27.6347 46.8878 27.464C46.8878 26.9947 46.8024 26.5467 46.6318 26.12C46.4824 25.6933 46.2478 25.32 45.9278 25C45.6078 24.6587 45.2131 24.392 44.7438 24.2C44.2744 23.9867 43.7411 23.88 43.1438 23.88C42.3118 23.88 41.6078 24.0613 41.0318 24.424C40.4771 24.7867 40.0398 25.256 39.7198 25.832C39.4211 26.3867 39.2398 26.9947 39.1758 27.656H47.9438L46.7918 28.488ZM53.7363 37V21.224H57.2883V24.712L56.6483 24.872C56.9256 23.9547 57.3309 23.208 57.8643 22.632C58.3976 22.056 59.0163 21.6293 59.7203 21.352C60.4456 21.0747 61.2029 20.936 61.9923 20.936C63.7629 20.936 65.1389 21.448 66.1203 22.472C67.1229 23.4747 67.6243 24.9147 67.6243 26.792V37H64.0723V28.104C64.0723 26.696 63.8163 25.6613 63.3043 25C62.7923 24.3387 62.0029 24.008 60.9363 24.008C60.1469 24.008 59.4749 24.2 58.9203 24.584C58.3869 24.9467 57.9816 25.5227 57.7043 26.312C57.4269 27.1013 57.2883 28.104 57.2883 29.32V37H53.7363ZM77.3393 37.288C76.5499 37.288 75.8033 37.1387 75.0993 36.84C74.4166 36.52 73.8726 36.0187 73.4673 35.336C73.0619 34.632 72.8593 33.7147 72.8593 32.584V17.384L76.4433 15.4V31.592C76.4433 32.488 76.5713 33.1813 76.8273 33.672C77.1046 34.1413 77.5953 34.376 78.2993 34.376C78.5126 34.376 78.7579 34.3547 79.0353 34.312C79.3339 34.248 79.6433 34.1733 79.9633 34.088V36.84C79.5366 36.9893 79.0993 37.096 78.6513 37.16C78.2246 37.2453 77.7873 37.288 77.3393 37.288ZM69.8513 23.976V21.224H79.9633V23.976H69.8513ZM88.6145 37.288C87.3772 37.288 86.3318 37.0427 85.4785 36.552C84.6465 36.0613 84.0172 35.3573 83.5905 34.44C83.1638 33.5227 82.9505 32.4133 82.9505 31.112V21.224H86.5025V30.152C86.5025 30.984 86.5985 31.7093 86.7905 32.328C87.0038 32.9253 87.3345 33.384 87.7825 33.704C88.2518 34.024 88.8812 34.184 89.6705 34.184C90.5878 34.184 91.3025 33.9493 91.8145 33.48C92.3478 32.9893 92.7212 32.2853 92.9345 31.368C93.1692 30.4293 93.2865 29.3093 93.2865 28.008V21.224H96.8385V37H93.2865V33.608L93.8945 33.832C93.4038 35.0267 92.6892 35.9013 91.7505 36.456C90.8332 37.0107 89.7878 37.288 88.6145 37.288ZM106.394 37.288C105.263 37.288 104.26 37.128 103.386 36.808C102.511 36.4667 101.775 36.04 101.178 35.528C100.58 35.016 100.09 34.504 99.7055 33.992L102.138 31.88C102.543 32.5413 103.098 33.128 103.802 33.64C104.527 34.152 105.402 34.408 106.426 34.408C107.279 34.408 107.951 34.2267 108.442 33.864C108.954 33.5013 109.21 33.0533 109.21 32.52C109.21 32.0507 109.05 31.688 108.73 31.432C108.41 31.1547 107.994 30.92 107.482 30.728C106.97 30.536 106.404 30.3653 105.786 30.216C105.188 30.0667 104.58 29.8853 103.962 29.672C103.343 29.4373 102.767 29.1493 102.234 28.808C101.722 28.4667 101.306 28.0293 100.986 27.496C100.666 26.9627 100.506 26.3013 100.506 25.512C100.506 24.1253 101.039 23.016 102.106 22.184C103.172 21.352 104.57 20.936 106.298 20.936C107.535 20.936 108.666 21.1813 109.69 21.672C110.714 22.1627 111.514 22.8987 112.09 23.88L109.882 25.576C109.455 24.936 108.922 24.456 108.282 24.136C107.642 23.816 106.948 23.656 106.202 23.656C105.519 23.656 104.943 23.7947 104.474 24.072C104.026 24.3493 103.802 24.712 103.802 25.16C103.802 25.5013 103.908 25.7787 104.122 25.992C104.335 26.2053 104.666 26.3973 105.114 26.568C105.562 26.7387 106.127 26.9093 106.81 27.08C107.45 27.2293 108.111 27.4107 108.794 27.624C109.476 27.8373 110.106 28.1253 110.682 28.488C111.279 28.8293 111.759 29.2987 112.122 29.896C112.506 30.472 112.698 31.2187 112.698 32.136C112.698 33.16 112.431 34.0667 111.898 34.856C111.386 35.624 110.65 36.2213 109.69 36.648C108.751 37.0747 107.652 37.288 106.394 37.288Z" fill="url(#paint0_linear_108_12431)"/>
<defs>
<linearGradient id="paint0_linear_108_12431" x1="0" y1="25.5" x2="89" y2="25.5" gradientUnits="userSpaceOnUse">
<stop stop-color="#F84A85"/>
<stop offset="1" stop-color="#5354FA"/>
</linearGradient>
</defs>
</svg>
