<svg width="16" height="16" viewBox="0 0 16 16" fill="none" xmlns="http://www.w3.org/2000/svg">
<path fill-rule="evenodd" clip-rule="evenodd" d="M2.16406 2.66602C2.16406 2.38987 2.38792 2.16602 2.66406 2.16602H13.3307C13.6069 2.16602 13.8307 2.38987 13.8307 2.66602V4.11402C13.8306 4.60018 13.6374 5.0665 13.2936 5.41024C13.2936 5.41025 13.2936 5.41022 13.2936 5.41024L10.4974 8.20645V12.666C10.4974 12.8812 10.3597 13.0723 10.1555 13.1404L6.15551 14.4737C6.00304 14.5245 5.83543 14.4989 5.70504 14.405C5.57466 14.311 5.4974 14.1601 5.4974 13.9993V8.52599L2.64076 5.38369C2.33409 5.04628 2.16411 4.60668 2.16406 4.15074V2.66602ZM3.16406 3.16602V4.15063C3.16406 4.15061 3.16406 4.15065 3.16406 4.15063C3.1641 4.35784 3.24133 4.55767 3.3807 4.71101C3.38069 4.711 3.38071 4.71102 3.3807 4.71101L6.36737 7.99635C6.45104 8.08838 6.4974 8.2083 6.4974 8.33268V13.3056L9.4974 12.3056V7.99935C9.4974 7.86674 9.55007 7.73956 9.64384 7.64579L12.5865 4.70313C12.7428 4.54691 12.8307 4.33497 12.8307 4.11402C12.8307 4.11398 12.8307 4.11405 12.8307 4.11402V3.16602H3.16406Z" fill="white"/>
</svg>
