<svg width="20" height="20" viewBox="0 0 20 20" fill="none" xmlns="http://www.w3.org/2000/svg">
<path fill-rule="evenodd" clip-rule="evenodd" d="M8.37955 1.71321C8.80932 1.28343 9.39222 1.04199 10 1.04199C10.6078 1.04199 11.1907 1.28343 11.6205 1.71321C12.0502 2.14298 12.2917 2.72587 12.2917 3.33366C12.2917 3.94145 12.0502 4.52434 11.6205 4.95411C11.3415 5.2331 10.998 5.43272 10.625 5.53846V7.79553C10.998 7.90126 11.3415 8.10089 11.6205 8.37987C11.8994 8.65886 12.0991 9.00237 12.2048 9.37533H14.4619C14.5676 9.00237 14.7672 8.65886 15.0462 8.37987C15.476 7.9501 16.0589 7.70866 16.6667 7.70866C17.2745 7.70866 17.8574 7.9501 18.2871 8.37987C18.7169 8.80964 18.9583 9.39254 18.9583 10.0003C18.9583 10.6081 18.7169 11.191 18.2871 11.6208C17.8574 12.0505 17.2745 12.292 16.6667 12.292C16.0589 12.292 15.476 12.0505 15.0462 11.6208C14.7672 11.3418 14.5676 10.9983 14.4619 10.6253H12.2048C12.0991 10.9983 11.8994 11.3418 11.6205 11.6208C11.3415 11.8998 10.998 12.0994 10.625 12.2051V14.4622C10.998 14.5679 11.3415 14.7676 11.6205 15.0465C12.0502 15.4763 12.2917 16.0592 12.2917 16.667C12.2917 17.2748 12.0502 17.8577 11.6205 18.2874C11.1907 18.7172 10.6078 18.9587 10 18.9587C9.39222 18.9587 8.80932 18.7172 8.37955 18.2874C7.94978 17.8577 7.70834 17.2748 7.70834 16.667C7.70834 16.0592 7.94978 15.4763 8.37955 15.0465C8.65854 14.7676 9.00205 14.5679 9.375 14.4622V12.2051C9.00205 12.0994 8.65854 11.8998 8.37955 11.6208C8.10057 11.3418 7.90094 10.9983 7.79521 10.6253H5.53814C5.4324 10.9983 5.23278 11.3418 4.95379 11.6208C4.52402 12.0505 3.94113 12.292 3.33334 12.292C2.72555 12.292 2.14266 12.0505 1.71289 11.6208C1.28311 11.191 1.04167 10.6081 1.04167 10.0003C1.04167 9.39254 1.28311 8.80964 1.71289 8.37987C2.14266 7.9501 2.72555 7.70866 3.33334 7.70866C3.94113 7.70866 4.52402 7.9501 4.95379 8.37987C5.23278 8.65886 5.4324 9.00237 5.53814 9.37533H7.79521C7.90094 9.00237 8.10057 8.65886 8.37955 8.37987C8.65854 8.10089 9.00205 7.90126 9.375 7.79553V5.53846C9.00205 5.43272 8.65854 5.2331 8.37955 4.95411C7.94978 4.52434 7.70834 3.94145 7.70834 3.33366C7.70834 2.72587 7.94978 2.14298 8.37955 1.71321ZM10 2.29199C9.72374 2.29199 9.45879 2.40174 9.26344 2.59709C9.06808 2.79244 8.95834 3.05739 8.95834 3.33366C8.95834 3.60993 9.06808 3.87488 9.26344 4.07023C9.45879 4.26558 9.72374 4.37533 10 4.37533C10.2763 4.37533 10.5412 4.26558 10.7366 4.07023C10.9319 3.87488 11.0417 3.60993 11.0417 3.33366C11.0417 3.05739 10.9319 2.79244 10.7366 2.59709C10.5412 2.40174 10.2763 2.29199 10 2.29199ZM3.33334 8.95866C3.05707 8.95866 2.79212 9.06841 2.59677 9.26376C2.40142 9.45911 2.29167 9.72406 2.29167 10.0003C2.29167 10.2766 2.40142 10.5415 2.59677 10.7369C2.79212 10.9322 3.05707 11.042 3.33334 11.042C3.60961 11.042 3.87456 10.9322 4.06991 10.7369C4.26526 10.5415 4.37501 10.2766 4.37501 10.0003C4.37501 9.72406 4.26526 9.45911 4.06991 9.26376C3.87456 9.06841 3.60961 8.95866 3.33334 8.95866ZM10 8.95866C9.72374 8.95866 9.45879 9.06841 9.26344 9.26376C9.06808 9.45911 8.95834 9.72406 8.95834 10.0003C8.95834 10.2766 9.06808 10.5415 9.26344 10.7369C9.45879 10.9322 9.72374 11.042 10 11.042C10.2763 11.042 10.5412 10.9322 10.7366 10.7369C10.9319 10.5415 11.0417 10.2766 11.0417 10.0003C11.0417 9.72406 10.9319 9.45911 10.7366 9.26376C10.5412 9.06841 10.2763 8.95866 10 8.95866ZM16.6667 8.95866C16.3904 8.95866 16.1255 9.06841 15.9301 9.26376C15.7348 9.45911 15.625 9.72406 15.625 10.0003C15.625 10.2766 15.7348 10.5415 15.9301 10.7369C16.1255 10.9322 16.3904 11.042 16.6667 11.042C16.9429 11.042 17.2079 10.9322 17.4032 10.7369C17.5986 10.5415 17.7083 10.2766 17.7083 10.0003C17.7083 9.72406 17.5986 9.45911 17.4032 9.26376C17.2079 9.06841 16.9429 8.95866 16.6667 8.95866ZM10 15.6253C9.72374 15.6253 9.45879 15.7351 9.26344 15.9304C9.06808 16.1258 8.95834 16.3907 8.95834 16.667C8.95834 16.9433 9.06808 17.2082 9.26344 17.4036C9.45879 17.5989 9.72374 17.7087 10 17.7087C10.2763 17.7087 10.5412 17.5989 10.7366 17.4036C10.9319 17.2082 11.0417 16.9433 11.0417 16.667C11.0417 16.3907 10.9319 16.1258 10.7366 15.9304C10.5412 15.7351 10.2763 15.6253 10 15.6253Z" fill="white"/>
</svg>
