<svg width="20" height="20" viewBox="0 0 20 20" fill="none" xmlns="http://www.w3.org/2000/svg">
<path fill-rule="evenodd" clip-rule="evenodd" d="M6.66667 1.875C7.01184 1.875 7.29167 2.15482 7.29167 2.5V3.33333C7.29167 3.67851 7.01184 3.95833 6.66667 3.95833C6.32149 3.95833 6.04167 3.67851 6.04167 3.33333V2.5C6.04167 2.15482 6.32149 1.875 6.66667 1.875ZM13.3333 1.875C13.6785 1.875 13.9583 2.15482 13.9583 2.5V3.33333C13.9583 3.67851 13.6785 3.95833 13.3333 3.95833C12.9882 3.95833 12.7083 3.67851 12.7083 3.33333V2.5C12.7083 2.15482 12.9882 1.875 13.3333 1.875ZM1.875 6.66667C1.875 6.32149 2.15482 6.04167 2.5 6.04167H3.33333C3.67851 6.04167 3.95833 6.32149 3.95833 6.66667C3.95833 7.01184 3.67851 7.29167 3.33333 7.29167H2.5C2.15482 7.29167 1.875 7.01184 1.875 6.66667ZM7.5 7.29167C7.44475 7.29167 7.39176 7.31362 7.35269 7.35269C7.31362 7.39176 7.29167 7.44475 7.29167 7.5V12.5C7.29167 12.5553 7.31362 12.6082 7.35269 12.6473C7.39176 12.6864 7.44475 12.7083 7.5 12.7083H12.5C12.5553 12.7083 12.6082 12.6864 12.6473 12.6473C12.6864 12.6082 12.7083 12.5553 12.7083 12.5V7.5C12.7083 7.44475 12.6864 7.39176 12.6473 7.35269C12.6082 7.31362 12.5553 7.29167 12.5 7.29167H7.5ZM6.4688 6.4688C6.74229 6.19531 7.11323 6.04167 7.5 6.04167H12.5C12.8868 6.04167 13.2577 6.19531 13.5312 6.4688C13.8047 6.74229 13.9583 7.11323 13.9583 7.5V12.5C13.9583 12.8868 13.8047 13.2577 13.5312 13.5312C13.2577 13.8047 12.8868 13.9583 12.5 13.9583H7.5C7.11323 13.9583 6.74229 13.8047 6.4688 13.5312C6.19531 13.2577 6.04167 12.8868 6.04167 12.5V7.5C6.04167 7.11323 6.19531 6.74229 6.4688 6.4688ZM16.0417 6.66667C16.0417 6.32149 16.3215 6.04167 16.6667 6.04167H17.5C17.8452 6.04167 18.125 6.32149 18.125 6.66667C18.125 7.01184 17.8452 7.29167 17.5 7.29167H16.6667C16.3215 7.29167 16.0417 7.01184 16.0417 6.66667ZM1.875 13.3333C1.875 12.9882 2.15482 12.7083 2.5 12.7083H3.33333C3.67851 12.7083 3.95833 12.9882 3.95833 13.3333C3.95833 13.6785 3.67851 13.9583 3.33333 13.9583H2.5C2.15482 13.9583 1.875 13.6785 1.875 13.3333ZM16.0417 13.3333C16.0417 12.9882 16.3215 12.7083 16.6667 12.7083H17.5C17.8452 12.7083 18.125 12.9882 18.125 13.3333C18.125 13.6785 17.8452 13.9583 17.5 13.9583H16.6667C16.3215 13.9583 16.0417 13.6785 16.0417 13.3333ZM6.66667 16.0417C7.01184 16.0417 7.29167 16.3215 7.29167 16.6667V17.5C7.29167 17.8452 7.01184 18.125 6.66667 18.125C6.32149 18.125 6.04167 17.8452 6.04167 17.5V16.6667C6.04167 16.3215 6.32149 16.0417 6.66667 16.0417ZM13.3333 16.0417C13.6785 16.0417 13.9583 16.3215 13.9583 16.6667V17.5C13.9583 17.8452 13.6785 18.125 13.3333 18.125C12.9882 18.125 12.7083 17.8452 12.7083 17.5V16.6667C12.7083 16.3215 12.9882 16.0417 13.3333 16.0417Z" fill="white"/>
</svg>
