<svg width="20" height="20" viewBox="0 0 20 20" fill="none" xmlns="http://www.w3.org/2000/svg">
<rect width="20" height="20" rx="10" fill="#701FC1"/>
<path d="M7.28 14.14C6.42 14.14 5.76333 13.9167 5.31 13.47C4.86333 13.0233 4.64 12.36 4.64 11.48V7.03H5.8V11.35C5.8 11.73 5.84333 12.05 5.93 12.31C6.02333 12.5633 6.17667 12.7567 6.39 12.89C6.61 13.0167 6.90667 13.08 7.28 13.08C7.65333 13.08 7.94667 13.0133 8.16 12.88C8.38 12.7467 8.53667 12.5533 8.63 12.3C8.72333 12.0467 8.77 11.73 8.77 11.35V7.03H9.92V11.43C9.92 12.33 9.69667 13.0067 9.25 13.46C8.80333 13.9133 8.14667 14.14 7.28 14.14ZM13.5323 14.13C12.7989 14.13 12.1989 13.94 11.7323 13.56C11.2723 13.18 10.9889 12.6733 10.8823 12.04L12.0123 11.76C12.0856 12.2 12.2589 12.5333 12.5323 12.76C12.8123 12.9867 13.1556 13.1 13.5623 13.1C13.7889 13.1 13.9923 13.06 14.1723 12.98C14.3523 12.8933 14.4923 12.7733 14.5923 12.62C14.6989 12.4667 14.7523 12.2933 14.7523 12.1C14.7523 11.8933 14.6956 11.7233 14.5823 11.59C14.4689 11.45 14.3056 11.3267 14.0923 11.22C13.8789 11.1067 13.6189 10.99 13.3123 10.87C12.8923 10.71 12.5356 10.5367 12.2423 10.35C11.9489 10.1633 11.7256 9.94333 11.5723 9.69C11.4189 9.43 11.3423 9.12333 11.3423 8.77C11.3423 8.40333 11.4323 8.08 11.6123 7.8C11.7923 7.51333 12.0456 7.29 12.3723 7.13C12.6989 6.97 13.0756 6.89 13.5023 6.89C13.9623 6.89 14.3689 6.99333 14.7223 7.2C15.0756 7.40667 15.3589 7.72 15.5723 8.14L14.6523 8.7C14.5123 8.44667 14.3423 8.25333 14.1423 8.12C13.9423 7.98 13.7156 7.91 13.4623 7.91C13.2823 7.91 13.1189 7.94667 12.9723 8.02C12.8256 8.08667 12.7089 8.18333 12.6223 8.31C12.5423 8.43667 12.5023 8.58333 12.5023 8.75C12.5023 8.92333 12.5523 9.07667 12.6523 9.21C12.7523 9.33667 12.9056 9.45333 13.1123 9.56C13.3256 9.66667 13.5956 9.78333 13.9223 9.91C14.3423 10.07 14.6989 10.2433 14.9923 10.43C15.2856 10.6167 15.5089 10.84 15.6623 11.1C15.8223 11.3533 15.9023 11.6633 15.9023 12.03C15.9023 12.4367 15.8023 12.7967 15.6023 13.11C15.4023 13.4233 15.1223 13.6733 14.7623 13.86C14.4089 14.04 13.9989 14.13 13.5323 14.13Z" fill="white"/>
</svg>
