<svg width="40" height="40" viewBox="0 0 40 40" fill="none" xmlns="http://www.w3.org/2000/svg">
<rect width="40" height="40" rx="20" fill="#701FC1"/>
<path d="M15.248 26.224C13.872 26.224 12.8213 25.8667 12.096 25.152C11.3813 24.4373 11.024 23.376 11.024 21.968V14.848H12.88V21.76C12.88 22.368 12.9493 22.88 13.088 23.296C13.2373 23.7013 13.4827 24.0107 13.824 24.224C14.176 24.4267 14.6507 24.528 15.248 24.528C15.8453 24.528 16.3147 24.4213 16.656 24.208C17.008 23.9947 17.2587 23.6853 17.408 23.28C17.5573 22.8747 17.632 22.368 17.632 21.76V14.848H19.472V21.888C19.472 23.328 19.1147 24.4107 18.4 25.136C17.6853 25.8613 16.6347 26.224 15.248 26.224ZM24.2436 26.144C23.6783 26.144 23.177 26.064 22.7396 25.904C22.3023 25.7333 21.9343 25.52 21.6356 25.264C21.337 25.008 21.0916 24.752 20.8996 24.496L22.1156 23.44C22.3183 23.7707 22.5956 24.064 22.9476 24.32C23.3103 24.576 23.7476 24.704 24.2596 24.704C24.6863 24.704 25.0223 24.6133 25.2676 24.432C25.5236 24.2507 25.6516 24.0267 25.6516 23.76C25.6516 23.5253 25.5716 23.344 25.4116 23.216C25.2516 23.0773 25.0436 22.96 24.7876 22.864C24.5316 22.768 24.249 22.6827 23.9396 22.608C23.641 22.5333 23.337 22.4427 23.0276 22.336C22.7183 22.2187 22.4303 22.0747 22.1636 21.904C21.9076 21.7333 21.6996 21.5147 21.5396 21.248C21.3796 20.9813 21.2996 20.6507 21.2996 20.256C21.2996 19.5627 21.5663 19.008 22.0996 18.592C22.633 18.176 23.3316 17.968 24.1956 17.968C24.8143 17.968 25.3796 18.0907 25.8916 18.336C26.4036 18.5813 26.8036 18.9493 27.0916 19.44L25.9876 20.288C25.7743 19.968 25.5076 19.728 25.1876 19.568C24.8676 19.408 24.521 19.328 24.1476 19.328C23.8063 19.328 23.5183 19.3973 23.2836 19.536C23.0596 19.6747 22.9476 19.856 22.9476 20.08C22.9476 20.2507 23.001 20.3893 23.1076 20.496C23.2143 20.6027 23.3796 20.6987 23.6036 20.784C23.8276 20.8693 24.1103 20.9547 24.4516 21.04C24.7716 21.1147 25.1023 21.2053 25.4436 21.312C25.785 21.4187 26.0996 21.5627 26.3876 21.744C26.6863 21.9147 26.9263 22.1493 27.1076 22.448C27.2996 22.736 27.3956 23.1093 27.3956 23.568C27.3956 24.08 27.2623 24.5333 26.9956 24.928C26.7396 25.312 26.3716 25.6107 25.8916 25.824C25.4223 26.0373 24.873 26.144 24.2436 26.144Z" fill="white"/>
</svg>
