<svg width="16" height="16" viewBox="0 0 16 16" fill="none" xmlns="http://www.w3.org/2000/svg">
<path fill-rule="evenodd" clip-rule="evenodd" d="M7.64646 2.97945C7.84172 2.78419 8.1583 2.78419 8.35356 2.97945L11.0202 5.64612C11.2155 5.84138 11.2155 6.15797 11.0202 6.35323C10.825 6.54849 10.5084 6.54849 10.3131 6.35323L8.00001 4.04011L5.6869 6.35323C5.49163 6.54849 5.17505 6.54849 4.97979 6.35323C4.78453 6.15797 4.78453 5.84138 4.97979 5.64612L7.64646 2.97945ZM4.97979 9.64612C5.17505 9.45086 5.49163 9.45086 5.6869 9.64612L8.00001 11.9592L10.3131 9.64612C10.5084 9.45086 10.825 9.45086 11.0202 9.64612C11.2155 9.84138 11.2155 10.158 11.0202 10.3532L8.35356 13.0199C8.1583 13.2152 7.84172 13.2152 7.64646 13.0199L4.97979 10.3532C4.78453 10.158 4.78453 9.84138 4.97979 9.64612Z" fill="white"/>
</svg>
