<svg width="20" height="20" viewBox="0 0 20 20" fill="none" xmlns="http://www.w3.org/2000/svg">
<path fill-rule="evenodd" clip-rule="evenodd" d="M4.16666 4.16667C4.6269 4.16667 4.99999 4.53976 4.99999 5V5.00833C4.99999 5.46857 4.6269 5.84167 4.16666 5.84167C3.70642 5.84167 3.33333 5.46857 3.33333 5.00833V5C3.33333 4.53976 3.70642 4.16667 4.16666 4.16667ZM6.66666 5C6.66666 4.53976 7.03976 4.16667 7.5 4.16667H16.6667C17.1269 4.16667 17.5 4.53976 17.5 5C17.5 5.46024 17.1269 5.83333 16.6667 5.83333H7.5C7.03976 5.83333 6.66666 5.46024 6.66666 5ZM4.16666 9.16667C4.6269 9.16667 4.99999 9.53976 4.99999 10V10.0083C4.99999 10.4686 4.6269 10.8417 4.16666 10.8417C3.70642 10.8417 3.33333 10.4686 3.33333 10.0083V10C3.33333 9.53976 3.70642 9.16667 4.16666 9.16667ZM6.66666 10C6.66666 9.53976 7.03976 9.16667 7.5 9.16667H16.6667C17.1269 9.16667 17.5 9.53976 17.5 10C17.5 10.4602 17.1269 10.8333 16.6667 10.8333H7.5C7.03976 10.8333 6.66666 10.4602 6.66666 10ZM4.16666 14.1667C4.6269 14.1667 4.99999 14.5398 4.99999 15V15.0083C4.99999 15.4686 4.6269 15.8417 4.16666 15.8417C3.70642 15.8417 3.33333 15.4686 3.33333 15.0083V15C3.33333 14.5398 3.70642 14.1667 4.16666 14.1667ZM6.66666 15C6.66666 14.5398 7.03976 14.1667 7.5 14.1667H16.6667C17.1269 14.1667 17.5 14.5398 17.5 15C17.5 15.4602 17.1269 15.8333 16.6667 15.8333H7.5C7.03976 15.8333 6.66666 15.4602 6.66666 15Z" fill="white"/>
</svg>
